solid OpenSCAD_Model
  facet normal -0 0 1
    outer loop
      vertex 0 7.5 7.8
      vertex 24 0 7.8
      vertex 24 7.5 7.8
    endloop
  endfacet
  facet normal 0 0 1
    outer loop
      vertex 24 0 7.8
      vertex 0 7.5 7.8
      vertex 0 0 7.8
    endloop
  endfacet
  facet normal 0 0 -1
    outer loop
      vertex 0 0 0
      vertex 24 7.5 0
      vertex 24 0 0
    endloop
  endfacet
  facet normal -0 0 -1
    outer loop
      vertex 24 7.5 0
      vertex 0 0 0
      vertex 0 7.5 0
    endloop
  endfacet
  facet normal 0 -1 0
    outer loop
      vertex 0 0 0
      vertex 24 0 7.8
      vertex 0 0 7.8
    endloop
  endfacet
  facet normal 0 -1 -0
    outer loop
      vertex 24 0 7.8
      vertex 0 0 0
      vertex 24 0 0
    endloop
  endfacet
  facet normal 1 -0 0
    outer loop
      vertex 24 0 7.8
      vertex 24 7.5 0
      vertex 24 7.5 7.8
    endloop
  endfacet
  facet normal 1 0 0
    outer loop
      vertex 24 7.5 0
      vertex 24 0 7.8
      vertex 24 0 0
    endloop
  endfacet
  facet normal 0 1 -0
    outer loop
      vertex 24 7.5 0
      vertex 0 7.5 7.8
      vertex 24 7.5 7.8
    endloop
  endfacet
  facet normal 0 1 0
    outer loop
      vertex 0 7.5 7.8
      vertex 24 7.5 0
      vertex 0 7.5 0
    endloop
  endfacet
  facet normal -1 0 0
    outer loop
      vertex 0 0 0
      vertex 0 7.5 7.8
      vertex 0 7.5 0
    endloop
  endfacet
  facet normal -1 -0 0
    outer loop
      vertex 0 7.5 7.8
      vertex 0 0 0
      vertex 0 0 7.8
    endloop
  endfacet
endsolid OpenSCAD_Model
